<svg width="118" height="108" viewBox="0 0 118 108" fill="none" xmlns="http://www.w3.org/2000/svg">
<path d="M47.5001 23.6337L97.4629 66.329L97.4629 107.224L0.500375 23.6337L47.5001 23.6337Z" fill="#007BFE"/>
<path d="M34.0605 32.4771L35.7029 33.966C36.0308 34.2633 36.3847 34.4545 36.7646 34.5396C37.1444 34.6247 37.5202 34.6051 37.8921 34.4809C38.2663 34.3589 38.6032 34.1326 38.9027 33.8022L38.9093 33.795C39.2088 33.4646 39.3999 33.1084 39.4826 32.7264C39.5677 32.3466 39.5482 31.973 39.4242 31.6058C39.3002 31.2385 39.0742 30.9062 38.7462 30.6089L37.1038 29.12L36.5791 29.6988L38.0551 31.0368C38.4289 31.3757 38.6309 31.7346 38.6609 32.1133C38.691 32.4921 38.5498 32.8539 38.2371 33.1988L38.2306 33.206C37.9201 33.5485 37.5738 33.7245 37.1917 33.734C36.8118 33.7411 36.435 33.5752 36.0612 33.2363L34.5852 31.8983L34.0605 32.4771ZM32.046 34.045L32.6971 34.6353L37.4294 29.4152L36.7783 28.8248L32.046 34.045ZM38.2059 39.7545C38.435 39.9622 38.6674 40.1202 38.9032 40.2284C39.1435 40.3365 39.3761 40.4023 39.6008 40.4258C39.8276 40.447 40.039 40.4343 40.2349 40.3878C40.4355 40.3411 40.6127 40.2668 40.7667 40.1647L40.8002 40.1424L40.1707 39.5717L40.1268 39.5912C40.023 39.6377 39.8951 39.6601 39.7429 39.6584C39.5907 39.6566 39.4276 39.6208 39.2537 39.551C39.0797 39.4812 38.9047 39.3665 38.7287 39.2069C38.4923 38.9926 38.3343 38.7549 38.2547 38.4938C38.1772 38.2303 38.18 37.9582 38.2631 37.6776C38.3483 37.3945 38.5166 37.1144 38.768 36.837L38.9943 36.5874C39.2589 36.2956 39.5301 36.0933 39.808 35.9806C40.086 35.8679 40.3529 35.8352 40.6087 35.8826C40.8691 35.9297 41.1042 36.0484 41.314 36.2386C41.5239 36.4288 41.6647 36.6466 41.7367 36.892C41.8108 37.1349 41.8041 37.3968 41.7164 37.6777C41.6288 37.9585 41.4462 38.2521 41.1685 38.5584L40.9422 38.808L41.6698 38.6306L38.8662 36.089L38.4103 36.5918L41.5359 39.4253L41.7589 39.1793C42.1109 38.791 42.3505 38.3887 42.4775 37.9722C42.6092 37.5556 42.6216 37.1494 42.5146 36.7536C42.41 36.36 42.1805 36.0026 41.826 35.6812C41.4739 35.362 41.0888 35.1688 40.6707 35.1018C40.2526 35.0347 39.8334 35.0875 39.4132 35.2602C38.9955 35.4351 38.604 35.7239 38.2389 36.1266L38.2356 36.1303C37.8661 36.5378 37.6159 36.9569 37.4849 37.3873C37.3585 37.8175 37.3536 38.2349 37.4702 38.6394C37.5892 39.0461 37.8345 39.4178 38.2059 39.7545ZM43.4164 41.1168L43.3328 44.277L44.1395 45.0083L44.1874 41.1897L44.0857 41.3018L47.606 41.0463L46.85 40.3609L43.8624 40.6249L43.6634 40.4445L45.1425 38.813L44.513 38.2423L40.9777 42.1421L41.6072 42.7127L43.2174 40.9365L43.4164 41.1168ZM46.3707 47.1563C46.7421 47.493 47.1349 47.7019 47.5491 47.783C47.9655 47.8616 48.3826 47.8158 48.8006 47.6456C49.221 47.4775 49.6193 47.186 49.9953 46.7712L50.0019 46.764C50.3801 46.3467 50.6323 45.9207 50.7585 45.4859C50.8871 45.0532 50.8908 44.6348 50.7696 44.2305C50.6483 43.8262 50.402 43.4558 50.0306 43.1191C49.6616 42.7846 49.2688 42.5757 48.8522 42.4924C48.4381 42.4113 48.0208 42.4548 47.6004 42.6229C47.1824 42.7932 46.7842 43.0869 46.406 43.5041L46.3995 43.5114C46.0234 43.9262 45.7711 44.3499 45.6425 44.7826C45.5163 45.2174 45.5128 45.6382 45.6318 46.0448C45.7554 46.4513 46.0017 46.8218 46.3707 47.1563ZM46.8758 46.5992C46.6298 46.3762 46.4736 46.1292 46.4073 45.8582C46.341 45.5872 46.3605 45.3016 46.4656 45.0015C46.5731 44.7035 46.7657 44.4014 47.0434 44.0951L47.0499 44.0879C47.3298 43.7792 47.6127 43.5568 47.8987 43.4206C48.1871 43.2866 48.4683 43.2406 48.7423 43.2825C49.0185 43.3219 49.2796 43.4532 49.5256 43.6762C49.7716 43.8992 49.9277 44.1462 49.994 44.4172C50.0625 44.6857 50.0429 44.969 49.9354 45.267C49.8303 45.5671 49.6378 45.8715 49.3579 46.1802L49.3514 46.1874C49.0737 46.4937 48.7907 46.7139 48.5023 46.8478C48.2163 46.984 47.9352 47.0323 47.659 46.9929C47.3828 46.9534 47.1217 46.8222 46.8758 46.5992ZM49.9059 50.2358L52.4213 47.4612L52.49 47.5235L51.2994 51.3014L51.7841 51.7408L55.4311 50.1897L55.4998 50.252L52.9844 53.0267L53.6139 53.5973L57.1492 49.6976L56.4184 49.0351L52.2804 50.7935L52.2225 50.7411L53.575 46.4575L52.8117 45.7655L49.2764 49.6652L49.9059 50.2358ZM56.3878 56.2372C56.6169 56.4449 56.8493 56.6029 57.0851 56.7112C57.3254 56.8192 57.558 56.885 57.7826 56.9086C58.0095 56.9297 58.2209 56.917 58.4168 56.8706C58.6173 56.8239 58.7946 56.7495 58.9486 56.6475L58.9821 56.6251L58.3526 56.0545L58.3087 56.0739C58.2049 56.1205 58.077 56.1429 57.9248 56.1411C57.7726 56.1393 57.6095 56.1036 57.4356 56.0337C57.2616 55.9639 57.0866 55.8492 56.9105 55.6896C56.6742 55.4753 56.5162 55.2376 56.4366 54.9765C56.3591 54.713 56.3619 54.4409 56.445 54.1603C56.5302 53.8773 56.6985 53.5971 56.9499 53.3197L57.1762 53.0701C57.4408 52.7783 57.712 52.576 57.9899 52.4633C58.2679 52.3506 58.5348 52.3179 58.7906 52.3653C59.051 52.4125 59.2861 52.5311 59.4959 52.7213C59.7058 52.9116 59.8466 53.1293 59.9186 53.3747C59.9927 53.6177 59.986 53.8796 59.8983 54.1604C59.8107 54.4412 59.628 54.7348 59.3504 55.0411L59.1241 55.2907L59.8517 55.1133L57.0481 52.5717L56.5922 53.0745L59.7178 55.908L59.9408 55.662C60.2928 55.2737 60.5324 54.8714 60.6594 54.4549C60.7911 54.0383 60.8035 53.6321 60.6965 53.2363C60.5919 52.8428 60.3624 52.4853 60.0079 52.1639C59.6558 51.8447 59.2707 51.6516 58.8525 51.5845C58.4344 51.5174 58.0153 51.5702 57.5951 51.7429C57.1774 51.9178 56.7859 52.2066 56.4208 52.6094L56.4175 52.613C56.048 53.0206 55.7978 53.4396 55.6668 53.87C55.5404 54.3003 55.5355 54.7176 55.6521 55.1221C55.7711 55.5288 56.0163 55.9005 56.3878 56.2372ZM61.7209 60.9467L62.3503 61.5173L65.8856 57.6176L65.2562 57.0469L63.7935 58.6604L61.8617 56.9091L63.3244 55.2957L62.6949 54.7251L59.1596 58.6248L59.7891 59.1954L61.3895 57.43L63.3213 59.1813L61.7209 60.9467ZM62.7433 63.7519L63.678 62.7209L66.7276 65.4855L65.7929 66.5165L66.379 67.0478L67.7859 65.4958L67.1636 64.9318L70.2267 61.553L67.5678 59.1425L65.4449 61.1789C65.1897 61.4265 64.923 61.6286 64.6449 61.7851C64.369 61.9392 64.1173 61.9988 63.8897 61.9638L63.5642 61.6687L62.1573 63.2206L62.7433 63.7519ZM66.5342 64.3611L64.6169 62.623L64.6693 62.5651C64.8703 62.5276 65.087 62.434 65.3193 62.2844C65.5538 62.1323 65.7866 61.9457 66.0178 61.7247L67.6526 60.1685L69.125 61.5033L66.5342 64.3611ZM69.6751 68.2828C70.0465 68.6195 70.4393 68.8283 70.8535 68.9094C71.2698 68.9881 71.687 68.9423 72.105 68.772C72.5254 68.604 72.9236 68.3125 73.2997 67.8977L73.3062 67.8904C73.6845 67.4732 73.9367 67.0472 74.0629 66.6124C74.1914 66.1797 74.1951 65.7613 74.0739 65.357C73.9527 64.9527 73.7064 64.5822 73.335 64.2456C72.966 63.911 72.5732 63.7021 72.1566 63.6189C71.7424 63.5378 71.3251 63.5813 70.9047 63.7494C70.4867 63.9196 70.0886 64.2134 69.7104 64.6306L69.7038 64.6379C69.3278 65.0527 69.0755 65.4764 68.9469 65.9091C68.8207 66.3439 68.8171 66.7646 68.9361 67.1713C69.0598 67.5778 69.3061 67.9482 69.6751 68.2828ZM70.1801 67.7257C69.9341 67.5026 69.778 67.2556 69.7117 66.9847C69.6454 66.7137 69.6648 66.4281 69.77 66.128C69.8775 65.83 70.0701 65.5279 70.3478 65.2216L70.3543 65.2144C70.6342 64.9057 70.9171 64.6833 71.2031 64.5471C71.4915 64.4131 71.7727 64.3671 72.0467 64.4089C72.3229 64.4484 72.584 64.5797 72.8299 64.8027C73.0759 65.0257 73.2321 65.2727 73.2984 65.5437C73.3668 65.8122 73.3473 66.0955 73.2398 66.3934C73.1347 66.6936 72.9422 66.998 72.6623 67.3067L72.6558 67.3139C72.3781 67.6202 72.0951 67.8403 71.8066 67.9743C71.5206 68.1105 71.2395 68.1588 70.9634 68.1194C70.6872 68.0799 70.4261 67.9487 70.1801 67.7257ZM72.5808 70.7917L74.2413 72.297C74.521 72.5506 74.8013 72.7212 75.0822 72.8089C75.3676 72.8963 75.6388 72.9049 75.8958 72.8347C76.1549 72.762 76.3862 72.6136 76.5895 72.3893L76.5961 72.3821C76.7338 72.2301 76.8236 72.0633 76.8654 71.8814C76.9117 71.6994 76.9107 71.514 76.8623 71.3251C76.816 71.1337 76.7195 70.9518 76.5728 70.7792L76.6253 70.7214C76.8435 70.8489 77.0851 70.8878 77.35 70.8379C77.6171 70.7857 77.8381 70.6631 78.013 70.4701L78.0195 70.4629C78.2972 70.1566 78.4166 69.8189 78.3778 69.4498C78.3411 69.0782 78.1383 68.7252 77.7693 68.3907L76.1161 66.892L72.5808 70.7917ZM73.6825 70.8414L74.7778 69.6331L75.6642 70.4366C75.9439 70.6902 76.1111 70.9275 76.1657 71.1483C76.2203 71.3692 76.1536 71.5833 75.9656 71.7907L75.959 71.798C75.7819 71.9933 75.585 72.0894 75.3682 72.0862C75.1536 72.0806 74.9269 71.9696 74.6882 71.7531L73.6825 70.8414ZM75.2501 69.1122L76.2733 67.9835L77.2066 68.8296C77.4261 69.0286 77.5395 69.2258 77.5467 69.4214C77.5562 69.6145 77.4855 69.7942 77.3347 69.9607L77.3281 69.9679C77.1619 70.1512 76.976 70.2375 76.7704 70.2268C76.5648 70.2162 76.3354 70.0961 76.0821 69.8665L75.2501 69.1122ZM77.6518 75.514C77.8279 75.6736 78.0113 75.796 78.2022 75.8811C78.3952 75.9639 78.5933 76.0095 78.7965 76.0179C79.0021 76.0286 79.2083 76.0024 79.4149 75.9392L79.4728 75.9917L78.9513 76.5669L79.5808 77.1375L82.0011 74.4678C82.2459 74.1976 82.3979 73.9136 82.4571 73.6158C82.5208 73.3177 82.4888 73.0162 82.3609 72.7113C82.2354 72.4087 82.0135 72.1131 81.6952 71.8245C81.4178 71.573 81.1313 71.3923 80.8355 71.2824C80.5419 71.17 80.2565 71.1287 79.9791 71.1584C79.7063 71.188 79.4601 71.2899 79.2405 71.4643L79.2172 71.4827L79.8466 72.0533L79.8601 72.0458C80.0485 71.9397 80.2546 71.9135 80.4785 71.9671C80.7045 72.0182 80.9345 72.1498 81.1684 72.3619C81.4603 72.6264 81.6206 72.8882 81.6494 73.1472C81.6828 73.406 81.5902 73.656 81.3716 73.8971L80.2697 75.1126C80.1013 75.2983 79.9022 75.421 79.6724 75.4807C79.445 75.5425 79.2087 75.5414 78.9636 75.4774C78.7207 75.4109 78.4919 75.2804 78.2772 75.0858C78.0505 74.8803 77.9116 74.6555 77.8605 74.4115C77.8115 74.165 77.8767 73.9428 78.056 73.7451L78.0625 73.7378C78.2374 73.5449 78.4405 73.4566 78.6718 73.4729C78.9054 73.4914 79.1782 73.6267 79.4902 73.8787L80.9255 75.0217L81.3813 74.5189L79.8701 73.307C79.5533 73.0506 79.2462 72.8732 78.9487 72.7749C78.6512 72.6766 78.3715 72.6603 78.1097 72.7261C77.8501 72.7896 77.6154 72.937 77.4055 73.1686L77.3989 73.1758C77.1847 73.4121 77.0555 73.6685 77.0114 73.9449C76.9698 74.2235 77.004 74.4984 77.1141 74.7695C77.2266 75.0429 77.4058 75.291 77.6518 75.514ZM83.3611 80.5646L83.9906 81.1352L87.5259 77.2355L86.8964 76.6649L85.4338 78.2783L83.502 76.527L84.9647 74.9136L84.3352 74.343L80.7999 78.2427L81.4294 78.8133L83.0298 77.048L84.9615 78.7992L83.3611 80.5646ZM86.7717 83.7816C87.1431 84.1183 87.5359 84.3272 87.9501 84.4083C88.3665 84.487 88.7836 84.4412 89.2016 84.2709C89.622 84.1028 90.0203 83.8114 90.3963 83.3966L90.4029 83.3893C90.7811 82.9721 91.0333 82.5461 91.1595 82.1112C91.2881 81.6786 91.2918 81.2601 91.1705 80.8559C91.0493 80.4516 90.803 80.0811 90.4316 79.7444C90.0626 79.4099 89.6698 79.201 89.2532 79.1177C88.839 79.0366 88.4218 79.0801 88.0013 79.2482C87.5834 79.4185 87.1852 79.7123 86.807 80.1295L86.8004 80.1367C86.4244 80.5516 86.1721 80.9753 86.0435 81.4079C85.9173 81.8428 85.9137 82.2635 86.0328 82.6702C86.1564 83.0766 86.4027 83.4471 86.7717 83.7816ZM87.2767 83.2245C87.0307 83.0015 86.8746 82.7545 86.8083 82.4835C86.742 82.2125 86.7614 81.927 86.8666 81.6268C86.9741 81.3289 87.1667 81.0268 87.4444 80.7205L87.4509 80.7133C87.7308 80.4046 88.0137 80.1821 88.2997 80.046C88.5881 79.912 88.8693 79.8659 89.1433 79.9078C89.4195 79.9473 89.6806 80.0785 89.9266 80.3015C90.1726 80.5245 90.3287 80.7715 90.395 81.0425C90.4635 81.3111 90.4439 81.5944 90.3364 81.8923C90.2313 82.1925 90.0388 82.4969 89.7589 82.8056L89.7524 82.8128C89.4747 83.1191 89.1917 83.3392 88.9033 83.4732C88.6173 83.6094 88.3362 83.6577 88.06 83.6182C87.7838 83.5788 87.5227 83.4475 87.2767 83.2245Z" fill="white"/>
</svg>
