<svg width="60" height="48" viewBox="0 0 60 48" fill="none" xmlns="http://www.w3.org/2000/svg">
<path d="M50.3028 40.0808C50.3028 40.7946 49.8247 41.3082 49.1366 41.3082C48.4279 41.3082 47.9704 40.7625 47.9704 40.0808C47.9704 39.3992 48.4279 38.8534 49.1366 38.8534C49.8247 38.8534 50.3028 39.3992 50.3028 40.0808ZM17.9282 38.8534C17.1876 38.8534 16.762 39.3992 16.762 40.0808C16.762 40.7625 17.1895 41.3082 17.9282 41.3082C18.605 41.3082 19.0625 40.7946 19.0625 40.0808C19.0513 39.3992 18.605 38.8534 17.9282 38.8534ZM30.1678 38.8232C29.6053 38.8232 29.2603 39.1896 29.1778 39.7353H31.1672C31.0734 39.1367 30.7097 38.8232 30.1678 38.8232ZM41.3968 38.8534C40.6881 38.8534 40.2625 39.3992 40.2625 40.0808C40.2625 40.7625 40.69 41.3082 41.3968 41.3082C42.1056 41.3082 42.563 40.7946 42.563 40.0808C42.563 39.3992 42.1037 38.8534 41.3968 38.8534ZM52.4271 41.5915C52.4271 41.6236 52.459 41.6444 52.459 41.7067C52.459 41.7388 52.4271 41.7595 52.4271 41.8219C52.3952 41.854 52.3952 41.8747 52.3746 41.9049C52.3427 41.937 52.3221 41.9578 52.2602 41.9578C52.2284 41.9899 52.2077 41.9899 52.1459 41.9899C52.114 41.9899 52.0934 41.9899 52.0315 41.9578C51.9996 41.9578 51.979 41.9257 51.949 41.9049C51.9171 41.8728 51.8965 41.8521 51.8965 41.8219C51.8646 41.769 51.8646 41.7388 51.8646 41.7067C51.8646 41.6538 51.8646 41.6236 51.8965 41.5915C51.8965 41.5386 51.9284 41.5084 51.949 41.4763C51.9809 41.4442 52.0015 41.4442 52.0315 41.4234C52.084 41.3913 52.114 41.3913 52.1459 41.3913C52.1984 41.3913 52.2284 41.3913 52.2602 41.4234C52.3127 41.4536 52.3427 41.4536 52.3746 41.4763C52.4065 41.499 52.3952 41.5386 52.4271 41.5915ZM52.1984 41.7388C52.2509 41.7388 52.2509 41.7067 52.2809 41.7067C52.3127 41.6746 52.3127 41.6538 52.3127 41.6236C52.3127 41.5934 52.3127 41.5707 52.2809 41.5405C52.2509 41.5405 52.2284 41.5084 52.1665 41.5084H51.9996V41.8747H52.0821V41.7274H52.114L52.2284 41.8747H52.3109L52.1984 41.7388ZM60 5.53612V42.4639C59.9995 43.7994 59.4725 45.0801 58.5348 46.0244C57.5972 46.9688 56.3256 47.4995 54.9995 47.5H5.00047C3.67441 47.4995 2.40281 46.9688 1.46515 46.0244C0.52749 45.0801 0.000496929 43.7994 0 42.4639V5.53612C0.000496929 4.20061 0.52749 2.91994 1.46515 1.9756C2.40281 1.03125 3.67441 0.5005 5.00047 0.5H54.9995C56.3256 0.5005 57.5972 1.03125 58.5348 1.9756C59.4725 2.91994 59.9995 4.20061 60 5.53612ZM6.66917 20.18C6.66917 28.2053 13.1377 34.7086 21.095 34.7086C23.9288 34.7005 26.6985 33.8584 29.0635 32.2859C21.47 26.0658 21.5225 14.3262 29.0635 8.10422C26.7008 6.52679 23.9296 5.68424 21.095 5.68152C13.1377 5.67208 6.66917 12.1849 6.66917 20.18ZM30.0009 31.5948C37.3451 25.8241 37.3132 14.5792 30.0009 8.77835C22.6887 14.5792 22.6568 25.8354 30.0009 31.5948ZM15.1777 39.5993C15.1777 38.6873 14.5833 38.0887 13.6458 38.0566C13.1658 38.0566 12.6559 38.2039 12.3127 38.7383C12.0634 38.3077 11.6359 38.0566 11.0415 38.0566C10.8256 38.0532 10.612 38.1031 10.4196 38.2018C10.2271 38.3006 10.0615 38.4452 9.93719 38.6231V38.1623H9.08409V42.0126H9.93719C9.93719 40.0299 9.67657 38.844 10.8747 38.844C11.9378 38.844 11.7296 39.9147 11.7296 42.0126H12.5527C12.5527 40.0922 12.2921 38.844 13.4902 38.844C14.5533 38.844 14.3433 39.8939 14.3433 42.0126H15.1983V39.5993H15.1777ZM19.8556 38.1623H19.0325V38.6231C18.8868 38.44 18.7009 38.2936 18.4894 38.1953C18.2779 38.097 18.0466 38.0495 17.8138 38.0566C16.7414 38.0566 15.9183 38.9176 15.9183 40.0808C15.9183 41.2554 16.7414 42.1051 17.8138 42.1051C18.3557 42.1051 18.7513 41.9049 19.0325 41.5386V42.022H19.8556V38.1623ZM24.0742 40.8475C24.0742 39.2745 21.6893 39.9864 21.6893 39.2519C21.6893 38.6533 22.9287 38.7496 23.6168 39.1367L23.9599 38.455C22.9812 37.8149 20.8137 37.8262 20.8137 39.3161C20.8137 40.8154 23.1987 40.1866 23.1987 40.889C23.1987 41.5499 21.7924 41.4971 21.0425 40.9721L20.6787 41.633C21.8449 42.4299 24.0742 42.2618 24.0742 40.8456V40.8475ZM27.7623 41.8219L27.5335 41.1081C27.1379 41.3271 26.2623 41.5688 26.2623 40.6775V38.9365H27.6273V38.1604H26.2623V36.9859H25.4073V38.1604H24.6161V38.9271H25.4073V40.6794C25.4073 42.5262 27.2092 42.1901 27.7623 41.8219ZM29.146 40.417H32.0109C32.0109 38.7175 31.2403 38.0452 30.1978 38.0452C29.0935 38.0452 28.3022 38.8742 28.3022 40.0695C28.3022 42.2203 30.6572 42.5772 31.8234 41.5594L31.4278 40.9306C30.6159 41.6028 29.386 41.5386 29.146 40.417ZM35.3033 38.1623C34.8252 37.9527 34.0958 37.9735 33.7208 38.6231V38.1623H32.8658V42.0126H33.7208V39.841C33.7208 38.6231 34.7108 38.7817 35.0539 38.9592L35.3033 38.1623ZM36.4076 40.0808C36.4076 38.8837 37.6169 38.4965 38.5638 39.199L38.9594 38.5173C37.7501 37.5637 35.5526 38.0868 35.5526 40.0903C35.5526 42.1674 37.8851 42.5866 38.9594 41.6632L38.5638 40.9816C37.6057 41.6632 36.4076 41.2554 36.4076 40.0789V40.0808ZM43.3543 38.1623H42.4993V38.6231C41.6349 37.4693 39.385 38.1208 39.385 40.0808C39.385 42.0957 41.7174 42.6716 42.4993 41.5386V42.022H43.3543V38.1623ZM46.8642 38.1623C46.6148 38.0358 45.7186 37.8583 45.2817 38.6231V38.1623H44.4586V42.0126H45.2817V39.841C45.2817 38.6873 46.2192 38.7609 46.6148 38.9592L46.8642 38.1623ZM51.0622 36.5988H50.2391V38.6231C49.3841 37.4806 47.1248 38.0887 47.1248 40.0808C47.1248 42.1164 49.4685 42.6603 50.2391 41.5386V42.022H51.0622V36.5988ZM51.8553 28.7208V29.2042H51.9378V28.7208H52.1346V28.6377H51.6546V28.7208H51.8553ZM52.5415 41.7067C52.5415 41.6538 52.5415 41.5915 52.5115 41.5386C52.4796 41.5065 52.459 41.4555 52.429 41.4234C52.399 41.3913 52.3465 41.3706 52.3146 41.3403C52.2621 41.3403 52.2002 41.3082 52.1477 41.3082C52.1159 41.3082 52.0652 41.3403 52.0015 41.3403C51.9604 41.3636 51.922 41.3915 51.8871 41.4234C51.8346 41.4536 51.8046 41.5065 51.8046 41.5386C51.7728 41.5915 51.7728 41.6538 51.7728 41.7067C51.7728 41.7388 51.7728 41.7898 51.8046 41.854C51.8046 41.8861 51.8365 41.937 51.8871 41.9691C51.9188 42.0049 51.9578 42.0333 52.0015 42.0522C52.054 42.0824 52.1159 42.0824 52.1477 42.0824C52.2002 42.0824 52.2621 42.0824 52.3146 42.0522C52.3465 42.0201 52.3971 41.9994 52.429 41.9691C52.4609 41.9389 52.4815 41.8861 52.5115 41.854C52.5415 41.7916 52.5415 41.7388 52.5415 41.7067ZM52.8752 28.6264H52.729L52.5621 28.9927L52.3952 28.6264H52.249V29.1929H52.3315V28.7623L52.4984 29.1286H52.6127L52.759 28.7623V29.1929H52.8733L52.8752 28.6264ZM53.3327 20.18C53.3327 12.1849 46.8642 5.67208 38.9069 5.67208C36.0729 5.67923 33.3029 6.5214 30.9384 8.09478C38.4494 14.3168 38.5638 26.0866 30.9384 32.2765C33.3023 33.8511 36.0727 34.6934 38.9069 34.6992C46.8642 34.7105 53.3327 28.2053 53.3327 20.18Z" fill="white"/>
</svg>
