<svg width="127" height="99" viewBox="0 0 127 99" fill="none" xmlns="http://www.w3.org/2000/svg">
<path d="M1.83594 97.2266V95H8.15625V97.2266H9.71875V93.6484H8.39062V86.5156H2.25781L1.94531 91.0859C1.90885 91.6589 1.8125 92.1797 1.65625 92.6484C1.50521 93.1172 1.27344 93.4505 0.960938 93.6484H0.273438V97.2266H1.83594ZM6.69531 93.6484H2.82031V93.5156C3.01302 93.25 3.16406 92.9115 3.27344 92.5C3.38281 92.0885 3.45312 91.6406 3.48438 91.1562L3.72656 87.8672H6.69531V93.6484ZM15.0156 95.1641C15.849 95.1641 16.5625 94.987 17.1562 94.6328C17.7552 94.2786 18.2161 93.7734 18.5391 93.1172C18.8672 92.4557 19.0312 91.6719 19.0312 90.7656V90.75C19.0312 89.8385 18.8672 89.0547 18.5391 88.3984C18.2161 87.737 17.7552 87.2318 17.1562 86.8828C16.5573 86.5286 15.8438 86.3516 15.0156 86.3516C14.1927 86.3516 13.4792 86.5286 12.875 86.8828C12.276 87.237 11.8125 87.7422 11.4844 88.3984C11.1615 89.0547 11 89.8385 11 90.75V90.7656C11 91.6719 11.1615 92.4557 11.4844 93.1172C11.8073 93.7734 12.2682 94.2786 12.8672 94.6328C13.4714 94.987 14.1875 95.1641 15.0156 95.1641ZM15.0156 93.7422C14.5312 93.7422 14.1198 93.625 13.7812 93.3906C13.4427 93.151 13.1823 92.8099 13 92.3672C12.8229 91.9245 12.7344 91.3906 12.7344 90.7656V90.75C12.7344 90.1198 12.8229 89.5833 13 89.1406C13.1823 88.6979 13.4427 88.3594 13.7812 88.125C14.1198 87.8854 14.5312 87.7656 15.0156 87.7656C15.5 87.7656 15.9115 87.8854 16.25 88.125C16.5885 88.3594 16.8464 88.6979 17.0234 89.1406C17.2005 89.5833 17.2891 90.1198 17.2891 90.75V90.7656C17.2891 91.3906 17.2005 91.9245 17.0234 92.3672C16.8464 92.8099 16.5885 93.151 16.25 93.3906C15.9115 93.625 15.5 93.7422 15.0156 93.7422ZM24.8594 95.1641C25.6927 95.1641 26.4115 94.987 27.0156 94.6328C27.6198 94.2786 28.0833 93.7734 28.4062 93.1172C28.7292 92.4609 28.8906 91.6823 28.8906 90.7812V90.7656C28.8906 89.9271 28.737 89.2005 28.4297 88.5859C28.1224 87.9661 27.6901 87.487 27.1328 87.1484C26.5755 86.8099 25.9167 86.6406 25.1562 86.6406C24.724 86.6406 24.3255 86.7005 23.9609 86.8203C23.5964 86.9401 23.2734 87.1172 22.9922 87.3516C22.7161 87.5807 22.4844 87.8672 22.2969 88.2109H22.1641L22.1875 88.0469C22.2865 87.3125 22.4531 86.7188 22.6875 86.2656C22.9271 85.8073 23.2578 85.4688 23.6797 85.25C24.1016 85.026 24.6354 84.901 25.2812 84.875L26.2109 84.8359C26.6797 84.8151 27.1146 84.763 27.5156 84.6797C27.9167 84.5964 28.1901 84.4974 28.3359 84.3828V82.9688C27.987 83.099 27.6172 83.1979 27.2266 83.2656C26.8359 83.3333 26.4661 83.375 26.1172 83.3906L25.1797 83.4297C24.4141 83.4609 23.7526 83.612 23.1953 83.8828C22.6432 84.1536 22.1901 84.5547 21.8359 85.0859C21.4818 85.6172 21.2188 86.2891 21.0469 87.1016C20.8802 87.9089 20.7969 88.8698 20.7969 89.9844V90C20.7969 91.125 20.9505 92.0703 21.2578 92.8359C21.5651 93.6016 22.0208 94.1823 22.625 94.5781C23.2292 94.9688 23.974 95.1641 24.8594 95.1641ZM24.8438 93.75C24.3542 93.75 23.9349 93.6328 23.5859 93.3984C23.2422 93.1641 22.9792 92.8281 22.7969 92.3906C22.6146 91.9479 22.5234 91.4193 22.5234 90.8047V90.7891C22.5234 90.2005 22.6146 89.7031 22.7969 89.2969C22.9792 88.8854 23.2422 88.5703 23.5859 88.3516C23.9349 88.1328 24.3542 88.0234 24.8438 88.0234C25.3333 88.0234 25.75 88.1328 26.0938 88.3516C26.4427 88.5703 26.7057 88.8854 26.8828 89.2969C27.0651 89.7031 27.1562 90.2005 27.1562 90.7891V90.8047C27.1562 91.4193 27.0651 91.9479 26.8828 92.3906C26.7057 92.8281 26.4427 93.1641 26.0938 93.3984C25.75 93.6328 25.3333 93.75 24.8438 93.75ZM33.4062 95.1406C33.7812 95.1406 34.1276 95.0885 34.4453 94.9844C34.763 94.8802 35.0469 94.7292 35.2969 94.5312C35.5469 94.3281 35.7552 94.0833 35.9219 93.7969H36.0469V95H37.7344V89.1953C37.7344 88.6016 37.6042 88.0938 37.3438 87.6719C37.0885 87.2448 36.7109 86.9193 36.2109 86.6953C35.7161 86.4661 35.112 86.3516 34.3984 86.3516C33.7578 86.3516 33.1875 86.4479 32.6875 86.6406C32.1927 86.8333 31.7917 87.1042 31.4844 87.4531C31.1823 87.7969 30.9974 88.2031 30.9297 88.6719L30.9219 88.7266H32.5547L32.5703 88.7031C32.6693 88.401 32.8672 88.1667 33.1641 88C33.4661 87.8333 33.8542 87.75 34.3281 87.75C34.8958 87.75 35.3229 87.875 35.6094 88.125C35.901 88.3698 36.0469 88.7266 36.0469 89.1953V91.8672C36.0469 92.2318 35.9531 92.5599 35.7656 92.8516C35.5781 93.138 35.3177 93.3672 34.9844 93.5391C34.6562 93.7057 34.2812 93.7891 33.8594 93.7891C33.4062 93.7891 33.0312 93.6797 32.7344 93.4609C32.4375 93.237 32.2891 92.9323 32.2891 92.5469V92.5312C32.2891 92.151 32.4271 91.8568 32.7031 91.6484C32.9792 91.4349 33.4089 91.3099 33.9922 91.2734L36.8906 91.0859V89.8906L33.7578 90.0781C33.0859 90.1198 32.513 90.2448 32.0391 90.4531C31.5703 90.6562 31.2109 90.9375 30.9609 91.2969C30.7161 91.6562 30.5938 92.0911 30.5938 92.6016V92.6172C30.5938 93.1276 30.7161 93.5729 30.9609 93.9531C31.2057 94.3333 31.5391 94.6276 31.9609 94.8359C32.388 95.0391 32.8698 95.1406 33.4062 95.1406ZM40.2734 95H44.1562C44.776 95 45.3073 94.8984 45.75 94.6953C46.1979 94.4922 46.5391 94.2109 46.7734 93.8516C47.013 93.487 47.1328 93.0625 47.1328 92.5781V92.5625C47.1328 92.224 47.0573 91.9193 46.9062 91.6484C46.7604 91.3776 46.5521 91.1562 46.2812 90.9844C46.0104 90.8073 45.6901 90.6953 45.3203 90.6484V90.5234C45.737 90.4401 46.0807 90.2266 46.3516 89.8828C46.6224 89.5339 46.7578 89.1432 46.7578 88.7109V88.6953C46.7578 88.0339 46.526 87.5052 46.0625 87.1094C45.599 86.7135 44.9505 86.5156 44.1172 86.5156H40.2734V95ZM41.9609 93.75V91.2891H43.7188C44.2812 91.2891 44.7005 91.388 44.9766 91.5859C45.2578 91.7839 45.3984 92.0885 45.3984 92.5V92.5156C45.3984 92.9062 45.276 93.2109 45.0312 93.4297C44.7865 93.6432 44.4193 93.75 43.9297 93.75H41.9609ZM41.9609 90.0625V87.7656H43.7656C44.2188 87.7656 44.5495 87.8698 44.7578 88.0781C44.9714 88.2865 45.0781 88.5599 45.0781 88.8984V88.9141C45.0781 89.2839 44.9557 89.5677 44.7109 89.7656C44.4661 89.9635 44.0911 90.0625 43.5859 90.0625H41.9609ZM49.3516 95H52.7188C53.7031 95 54.487 94.737 55.0703 94.2109C55.6536 93.6797 55.9453 92.9688 55.9453 92.0781V92.0625C55.9453 91.1719 55.6536 90.4635 55.0703 89.9375C54.487 89.4062 53.7031 89.1406 52.7188 89.1406H51.0547V86.5156H49.3516V95ZM52.5781 90.4844C53.0833 90.4844 53.4844 90.6276 53.7812 90.9141C54.0833 91.2005 54.2344 91.5833 54.2344 92.0625V92.0781C54.2344 92.5521 54.0859 92.9349 53.7891 93.2266C53.4922 93.513 53.0885 93.6562 52.5781 93.6562H51.0547V90.4844H52.5781ZM64 95V89.1016H64.1484L66.625 94.6797H67.8672L70.3516 89.1016H70.4922V95H72.1406V86.5156H70.0781L67.3359 92.7031H67.2031L64.4844 86.5156H62.3516V95H64ZM77.0625 95.1406C77.4375 95.1406 77.7839 95.0885 78.1016 94.9844C78.4193 94.8802 78.7031 94.7292 78.9531 94.5312C79.2031 94.3281 79.4115 94.0833 79.5781 93.7969H79.7031V95H81.3906V89.1953C81.3906 88.6016 81.2604 88.0938 81 87.6719C80.7448 87.2448 80.3672 86.9193 79.8672 86.6953C79.3724 86.4661 78.7682 86.3516 78.0547 86.3516C77.4141 86.3516 76.8438 86.4479 76.3438 86.6406C75.849 86.8333 75.4479 87.1042 75.1406 87.4531C74.8385 87.7969 74.6536 88.2031 74.5859 88.6719L74.5781 88.7266H76.2109L76.2266 88.7031C76.3255 88.401 76.5234 88.1667 76.8203 88C77.1224 87.8333 77.5104 87.75 77.9844 87.75C78.5521 87.75 78.9792 87.875 79.2656 88.125C79.5573 88.3698 79.7031 88.7266 79.7031 89.1953V91.8672C79.7031 92.2318 79.6094 92.5599 79.4219 92.8516C79.2344 93.138 78.974 93.3672 78.6406 93.5391C78.3125 93.7057 77.9375 93.7891 77.5156 93.7891C77.0625 93.7891 76.6875 93.6797 76.3906 93.4609C76.0938 93.237 75.9453 92.9323 75.9453 92.5469V92.5312C75.9453 92.151 76.0833 91.8568 76.3594 91.6484C76.6354 91.4349 77.0651 91.3099 77.6484 91.2734L80.5469 91.0859V89.8906L77.4141 90.0781C76.7422 90.1198 76.1693 90.2448 75.6953 90.4531C75.2266 90.6562 74.8672 90.9375 74.6172 91.2969C74.3724 91.6562 74.25 92.0911 74.25 92.6016V92.6172C74.25 93.1276 74.3724 93.5729 74.6172 93.9531C74.862 94.3333 75.1953 94.6276 75.6172 94.8359C76.0443 95.0391 76.526 95.1406 77.0625 95.1406ZM89.5312 87.8516V86.5156H83.9297V95H85.6328V87.8516H89.5312ZM93.6406 95.1406C94.0156 95.1406 94.362 95.0885 94.6797 94.9844C94.9974 94.8802 95.2812 94.7292 95.5312 94.5312C95.7812 94.3281 95.9896 94.0833 96.1562 93.7969H96.2812V95H97.9688V89.1953C97.9688 88.6016 97.8385 88.0938 97.5781 87.6719C97.3229 87.2448 96.9453 86.9193 96.4453 86.6953C95.9505 86.4661 95.3464 86.3516 94.6328 86.3516C93.9922 86.3516 93.4219 86.4479 92.9219 86.6406C92.4271 86.8333 92.026 87.1042 91.7188 87.4531C91.4167 87.7969 91.2318 88.2031 91.1641 88.6719L91.1562 88.7266H92.7891L92.8047 88.7031C92.9036 88.401 93.1016 88.1667 93.3984 88C93.7005 87.8333 94.0885 87.75 94.5625 87.75C95.1302 87.75 95.5573 87.875 95.8438 88.125C96.1354 88.3698 96.2812 88.7266 96.2812 89.1953V91.8672C96.2812 92.2318 96.1875 92.5599 96 92.8516C95.8125 93.138 95.5521 93.3672 95.2188 93.5391C94.8906 93.7057 94.5156 93.7891 94.0938 93.7891C93.6406 93.7891 93.2656 93.6797 92.9688 93.4609C92.6719 93.237 92.5234 92.9323 92.5234 92.5469V92.5312C92.5234 92.151 92.6615 91.8568 92.9375 91.6484C93.2135 91.4349 93.6432 91.3099 94.2266 91.2734L97.125 91.0859V89.8906L93.9922 90.0781C93.3203 90.1198 92.7474 90.2448 92.2734 90.4531C91.8047 90.6562 91.4453 90.9375 91.1953 91.2969C90.9505 91.6562 90.8281 92.0911 90.8281 92.6016V92.6172C90.8281 93.1276 90.9505 93.5729 91.1953 93.9531C91.4401 94.3333 91.7734 94.6276 92.1953 94.8359C92.6224 95.0391 93.1042 95.1406 93.6406 95.1406ZM103.57 95.1641C104.273 95.1641 104.885 95.0521 105.406 94.8281C105.927 94.6042 106.331 94.2943 106.617 93.8984C106.904 93.4974 107.047 93.0339 107.047 92.5078V92.4922C107.047 92.1745 106.982 91.8906 106.852 91.6406C106.727 91.3854 106.534 91.1719 106.273 91C106.018 90.8281 105.698 90.7031 105.312 90.625V90.4922C105.75 90.388 106.099 90.1719 106.359 89.8438C106.625 89.5104 106.758 89.125 106.758 88.6875V88.6719C106.758 88.2031 106.633 87.7943 106.383 87.4453C106.133 87.0964 105.773 86.8255 105.305 86.6328C104.836 86.4401 104.273 86.3438 103.617 86.3438C102.971 86.3438 102.409 86.4427 101.93 86.6406C101.456 86.8385 101.078 87.1146 100.797 87.4688C100.516 87.8229 100.341 88.2422 100.273 88.7266L100.266 88.7812H101.891L101.898 88.7422C101.966 88.4193 102.148 88.1641 102.445 87.9766C102.747 87.7839 103.128 87.6875 103.586 87.6875C104.091 87.6875 104.469 87.7995 104.719 88.0234C104.974 88.2422 105.102 88.5156 105.102 88.8438V88.8594C105.102 89.25 104.971 89.5469 104.711 89.75C104.451 89.9531 104.062 90.0547 103.547 90.0547H102.289V91.2891H103.555C104.148 91.2891 104.599 91.3906 104.906 91.5938C105.214 91.7917 105.367 92.0964 105.367 92.5078V92.5234C105.367 92.9036 105.208 93.2161 104.891 93.4609C104.573 93.7005 104.128 93.8203 103.555 93.8203C103.076 93.8203 102.674 93.7266 102.352 93.5391C102.029 93.3464 101.82 93.0833 101.727 92.75L101.711 92.6875H100.039L100.047 92.7578C100.104 93.2682 100.294 93.7031 100.617 94.0625C100.94 94.4167 101.357 94.6901 101.867 94.8828C102.378 95.0703 102.945 95.1641 103.57 95.1641ZM109.227 95H110.914L115.156 88.375L114.008 89.0234H114.891V95H116.578V86.5156H114.891L110.648 93.1094L111.797 92.4688H110.914V86.5156H109.227V95ZM124.703 95H126.406V86.5156H124.703V89.9375H120.867V86.5156H119.164V95H120.867V91.2812H124.703V95Z" fill="#FF1414"/>
<path d="M0 97.9062H127.695V99.0469H0V97.9062Z" fill="#FF1414"/>
<circle cx="61.5" cy="33.5" r="33.5" fill="#FF1414"/>
<path d="M62.8904 33.7412C72.8756 31.9906 80.2672 26.5225 79.3811 21.53C78.4949 16.5374 69.6768 13.9222 59.6916 15.6729C49.7064 17.4235 42.3149 22.8916 43.2011 27.8842C44.0872 32.8767 52.8836 35.4919 62.8904 33.7412Z" stroke="#E7BA1C" stroke-width="2" stroke-miterlimit="10" stroke-linecap="round"/>
<path d="M45.7729 31.58C45.4487 34.0006 47.0697 36.551 49.8578 38.6691C53.532 41.2194 57.7249 42.9052 62.1339 43.5968C69.8281 44.9368 76.8091 43.7049 80.0295 40.8087C80.9588 40.0307 81.5856 38.95 81.8234 37.7613C82.3421 34.6707 79.7485 31.4071 75.2962 28.9648" stroke="#E7BA1C" stroke-width="2" stroke-miterlimit="10" stroke-linecap="round"/>
<path d="M80.1808 40.787C80.7427 41.3057 81.1966 41.9325 81.5208 42.6457C81.845 43.3373 82.0178 44.1154 82.0395 44.8719C82.0395 49.9293 73.8481 54.0357 63.6036 54.0357C53.3591 54.0357 45.1678 49.9509 45.1678 44.8719C45.1678 42.5161 46.9401 40.3763 49.8578 38.7554" stroke="#E7BA1C" stroke-width="2" stroke-miterlimit="10" stroke-linecap="round"/>
</svg>
