<svg width="295" height="252" viewBox="0 0 295 252" fill="none" xmlns="http://www.w3.org/2000/svg">
<rect width="295" height="252" fill="#D8C2F3"/>
<path d="M24.8691 37H26.8467V26.0225H30.8193V24.3174H20.8877V26.0225H24.8691V37ZM32.1201 37H35.8994C37.0068 37 37.8857 36.7041 38.5361 36.1123C39.1924 35.5205 39.5205 34.7236 39.5205 33.7217V33.7041C39.5205 32.7021 39.1924 31.9053 38.5361 31.3135C37.8857 30.7158 37.0068 30.417 35.8994 30.417H34.0273V27.4639H32.1201V37ZM35.7412 31.9287C36.3096 31.9287 36.7607 32.0898 37.0947 32.4121C37.4346 32.7344 37.6045 33.1621 37.6045 33.6953V33.7129C37.6045 34.2461 37.4375 34.6768 37.1035 35.0049C36.7695 35.3271 36.3154 35.4883 35.7412 35.4883H34.0273V31.9287H35.7412ZM41.1113 37H43.0186V27.4639H41.1113V37ZM57.8721 27.4639H49.9619V28.9756H52.959V37H54.8662V28.9756H57.8721V27.4639ZM63.6904 37.1846C64.6279 37.1846 65.4307 36.9854 66.0986 36.5869C66.7725 36.1885 67.291 35.6201 67.6543 34.8818C68.0176 34.1436 68.1992 33.2617 68.1992 32.2363V32.2188C68.1992 31.1992 68.0176 30.3203 67.6543 29.582C67.291 28.8438 66.7725 28.2754 66.0986 27.877C65.4248 27.4785 64.6221 27.2793 63.6904 27.2793C62.7646 27.2793 61.9648 27.4785 61.291 27.877C60.6172 28.2754 60.0957 28.8438 59.7266 29.582C59.3633 30.3203 59.1816 31.1992 59.1816 32.2188V32.2363C59.1816 33.2617 59.3633 34.1436 59.7266 34.8818C60.0957 35.6201 60.6172 36.1885 61.291 36.5869C61.9648 36.9854 62.7646 37.1846 63.6904 37.1846ZM63.6904 35.585C63.1514 35.585 62.6914 35.4531 62.3105 35.1895C61.9297 34.9258 61.6367 34.5449 61.4316 34.0469C61.2324 33.5488 61.1328 32.9482 61.1328 32.2451V32.2275C61.1328 31.5186 61.2324 30.915 61.4316 30.417C61.6367 29.9189 61.9297 29.5381 62.3105 29.2744C62.6914 29.0107 63.1514 28.8789 63.6904 28.8789C64.2354 28.8789 64.6953 29.0107 65.0703 29.2744C65.4512 29.5381 65.7412 29.9189 65.9404 30.417C66.1455 30.915 66.248 31.5186 66.248 32.2275V32.2451C66.248 32.9424 66.1484 33.543 65.9492 34.0469C65.75 34.5449 65.46 34.9258 65.0791 35.1895C64.6982 35.4531 64.2354 35.585 63.6904 35.585ZM71.4248 37L74.5537 32.7549H75.0986V37H76.9443V32.7549H77.4893L80.6182 37H82.9297L79.0098 31.8936V31.9111L82.7275 27.4639H80.5391L77.4805 31.3926H76.9443V27.4639H75.0986V31.3926H74.5625L71.5039 27.4639H69.2979L73.0332 31.9375V31.9199L69.1396 37H71.4248ZM88.502 37.1846C89.1113 37.1846 89.6504 37.1055 90.1191 36.9473C90.5938 36.7891 90.998 36.5811 91.332 36.3232C91.6719 36.0654 91.9443 35.7812 92.1494 35.4707C92.3545 35.1543 92.4951 34.835 92.5713 34.5127L92.5977 34.4336L90.752 34.4424L90.7168 34.5127C90.6465 34.6768 90.5146 34.8438 90.3213 35.0137C90.1338 35.1836 89.8906 35.3271 89.5918 35.4443C89.2988 35.5557 88.9473 35.6113 88.5371 35.6113C88.0098 35.6113 87.5498 35.4941 87.1572 35.2598C86.7705 35.0254 86.4717 34.6855 86.2607 34.2402C86.0498 33.7949 85.9443 33.2617 85.9443 32.6406V31.876C85.9443 31.2197 86.0498 30.6689 86.2607 30.2236C86.4775 29.7725 86.7705 29.4326 87.1396 29.2041C87.5146 28.9697 87.9395 28.8525 88.4141 28.8525C88.8887 28.8525 89.3047 28.9639 89.6621 29.1865C90.0254 29.4033 90.3096 29.7373 90.5146 30.1885C90.7256 30.6338 90.8311 31.1963 90.8311 31.876V32.6318L91.7451 31.375H84.9863V32.7373H92.6943V32.0693C92.6943 31.1143 92.5215 30.2793 92.1758 29.5645C91.8301 28.8438 91.335 28.2842 90.6904 27.8857C90.0518 27.4814 89.2871 27.2793 88.3965 27.2793C87.5117 27.2793 86.7412 27.4873 86.085 27.9033C85.4287 28.3193 84.9189 28.8994 84.5557 29.6436C84.1982 30.3877 84.0195 31.2578 84.0195 32.2539V32.2627C84.0195 33.2646 84.1982 34.1348 84.5557 34.873C84.9189 35.6113 85.4346 36.1826 86.1025 36.5869C86.7705 36.9854 87.5703 37.1846 88.502 37.1846ZM104.076 37.1846C105.014 37.1846 105.819 36.9854 106.493 36.5869C107.173 36.1885 107.694 35.623 108.058 34.8906C108.421 34.1523 108.603 33.2793 108.603 32.2715V32.2539C108.603 31.3047 108.43 30.4844 108.084 29.793C107.744 29.1016 107.258 28.5654 106.625 28.1846C105.998 27.8037 105.26 27.6133 104.41 27.6133C103.924 27.6133 103.476 27.6807 103.065 27.8154C102.655 27.9502 102.292 28.1494 101.976 28.4131C101.665 28.6768 101.401 28.999 101.185 29.3799H101.044L101.07 29.2041C101.182 28.3721 101.369 27.7012 101.633 27.1914C101.902 26.6758 102.274 26.2949 102.749 26.0488C103.224 25.7969 103.827 25.6562 104.56 25.627L105.597 25.583C106.124 25.5596 106.61 25.501 107.056 25.4072C107.507 25.3135 107.814 25.2021 107.979 25.0732V23.4824C107.592 23.6289 107.179 23.7402 106.739 23.8164C106.3 23.8926 105.884 23.9365 105.491 23.9482L104.445 23.9922C103.584 24.0332 102.84 24.2061 102.213 24.5107C101.586 24.8096 101.073 25.2578 100.675 25.8555C100.276 26.4531 99.9805 27.209 99.7871 28.123C99.5996 29.0312 99.5059 30.1123 99.5059 31.3662V31.3838C99.5059 32.6494 99.6787 33.7129 100.024 34.5742C100.37 35.4297 100.883 36.0801 101.562 36.5254C102.242 36.9648 103.08 37.1846 104.076 37.1846ZM104.059 35.5938C103.508 35.5938 103.036 35.4619 102.644 35.1982C102.257 34.9346 101.961 34.5566 101.756 34.0645C101.557 33.5723 101.457 32.9805 101.457 32.2891V32.2715C101.457 31.6152 101.557 31.0586 101.756 30.6016C101.961 30.1387 102.257 29.7871 102.644 29.5469C103.036 29.3008 103.508 29.1777 104.059 29.1777C104.604 29.1777 105.069 29.3008 105.456 29.5469C105.849 29.7871 106.145 30.1387 106.344 30.6016C106.549 31.0586 106.651 31.6152 106.651 32.2715V32.2891C106.651 32.9805 106.549 33.5723 106.344 34.0645C106.145 34.5566 105.852 34.9346 105.465 35.1982C105.078 35.4619 104.609 35.5938 104.059 35.5938ZM111.608 40.3398C112.253 40.3398 112.801 40.249 113.252 40.0674C113.703 39.8916 114.09 39.5869 114.412 39.1533C114.74 38.7197 115.039 38.125 115.309 37.3691L118.859 27.4639H116.847L114.166 36.042L114.746 35.084H114.025L114.605 36.042L111.925 27.4639H109.859L113.313 37.0088L113.173 37.4922C113.032 37.9785 112.824 38.3213 112.549 38.5205C112.273 38.7256 111.916 38.8281 111.477 38.8281C111.365 38.8281 111.251 38.8252 111.134 38.8193C111.022 38.8193 110.92 38.8105 110.826 38.793V40.2959C110.949 40.3135 111.078 40.3252 111.213 40.3311C111.354 40.3369 111.485 40.3398 111.608 40.3398ZM121.276 39.5049V37H128.369V39.5049H130.127V35.4795H128.633V27.4639H121.742L121.391 32.5967C121.35 33.2412 121.241 33.8301 121.065 34.3633C120.896 34.8906 120.635 35.2627 120.283 35.4795H119.51V39.5049H121.276ZM126.726 35.4795H122.375V35.3301C122.592 35.0371 122.762 34.6592 122.885 34.1963C123.008 33.7334 123.087 33.2295 123.122 32.6846L123.395 28.9844H126.726V35.4795ZM136.033 37.1846C136.643 37.1846 137.182 37.1055 137.65 36.9473C138.125 36.7891 138.529 36.5811 138.863 36.3232C139.203 36.0654 139.476 35.7812 139.681 35.4707C139.886 35.1543 140.026 34.835 140.103 34.5127L140.129 34.4336L138.283 34.4424L138.248 34.5127C138.178 34.6768 138.046 34.8438 137.853 35.0137C137.665 35.1836 137.422 35.3271 137.123 35.4443C136.83 35.5557 136.479 35.6113 136.068 35.6113C135.541 35.6113 135.081 35.4941 134.688 35.2598C134.302 35.0254 134.003 34.6855 133.792 34.2402C133.581 33.7949 133.476 33.2617 133.476 32.6406V31.876C133.476 31.2197 133.581 30.6689 133.792 30.2236C134.009 29.7725 134.302 29.4326 134.671 29.2041C135.046 28.9697 135.471 28.8525 135.945 28.8525C136.42 28.8525 136.836 28.9639 137.193 29.1865C137.557 29.4033 137.841 29.7373 138.046 30.1885C138.257 30.6338 138.362 31.1963 138.362 31.876V32.6318L139.276 31.375H132.518V32.7373H140.226V32.0693C140.226 31.1143 140.053 30.2793 139.707 29.5645C139.361 28.8438 138.866 28.2842 138.222 27.8857C137.583 27.4814 136.818 27.2793 135.928 27.2793C135.043 27.2793 134.272 27.4873 133.616 27.9033C132.96 28.3193 132.45 28.8994 132.087 29.6436C131.729 30.3877 131.551 31.2578 131.551 32.2539V32.2627C131.551 33.2646 131.729 34.1348 132.087 34.873C132.45 35.6113 132.966 36.1826 133.634 36.5869C134.302 36.9854 135.102 37.1846 136.033 37.1846ZM142.634 37H154.886V27.4639H152.97V35.4795H149.709V27.4639H147.802V35.4795H144.541V27.4639H142.634V37ZM157.751 37H161.53C162.638 37 163.517 36.7041 164.167 36.1123C164.823 35.5205 165.151 34.7236 165.151 33.7217V33.7041C165.151 32.7021 164.823 31.9053 164.167 31.3135C163.517 30.7158 162.638 30.417 161.53 30.417H159.658V27.4639H157.751V37ZM161.372 31.9287C161.94 31.9287 162.392 32.0898 162.726 32.4121C163.065 32.7344 163.235 33.1621 163.235 33.6953V33.7129C163.235 34.2461 163.068 34.6768 162.734 35.0049C162.4 35.3271 161.946 35.4883 161.372 35.4883H159.658V31.9287H161.372Z" fill="black"/>
<path d="M23.377 75.8965V72H33.6719V75.8965H36.7891V69.334H34.5742V57.5078H23.5547L23.0488 65.0684C22.985 66.0436 22.8255 66.9186 22.5703 67.6934C22.3242 68.4681 21.9368 69.015 21.4082 69.334H20.2598V75.8965H23.377ZM31.1699 69.334H24.9492V69.2656C25.2956 68.7826 25.5553 68.1992 25.7285 67.5156C25.9108 66.832 26.0293 66.0755 26.084 65.2461L26.4531 60.1602H31.1699V69.334ZM45.0332 72.2871C46.4551 72.2871 47.6901 71.9863 48.7383 71.3848C49.7865 70.7832 50.5977 69.9219 51.1719 68.8008C51.7552 67.6706 52.0469 66.3216 52.0469 64.7539V64.7266C52.0469 63.168 51.7552 61.8281 51.1719 60.707C50.5885 59.5859 49.7682 58.7246 48.7109 58.123C47.6628 57.5124 46.4323 57.207 45.0195 57.207C43.6159 57.207 42.39 57.5124 41.3418 58.123C40.2936 58.7246 39.4779 59.5905 38.8945 60.7207C38.3112 61.8418 38.0195 63.1771 38.0195 64.7266V64.7539C38.0195 66.3125 38.3066 67.6569 38.8809 68.7871C39.4642 69.9082 40.2799 70.7741 41.3281 71.3848C42.3763 71.9863 43.6113 72.2871 45.0332 72.2871ZM45.0469 69.5391C44.3268 69.5391 43.6979 69.3522 43.1602 68.9785C42.6315 68.6048 42.2168 68.0625 41.916 67.3516C41.6243 66.6315 41.4785 65.7656 41.4785 64.7539V64.7266C41.4785 63.724 41.6243 62.8672 41.916 62.1562C42.2168 61.4453 42.6315 60.903 43.1602 60.5293C43.6979 60.1556 44.3177 59.9688 45.0195 59.9688C45.7396 59.9688 46.3639 60.1556 46.8926 60.5293C47.4303 60.903 47.8451 61.4453 48.1367 62.1562C48.4284 62.8672 48.5742 63.724 48.5742 64.7266V64.7539C48.5742 65.7656 48.4284 66.6315 48.1367 67.3516C47.8542 68.0625 47.4486 68.6048 46.9199 68.9785C46.3913 69.3522 45.7669 69.5391 45.0469 69.5391ZM54.4668 72H61.4531C62.5286 72 63.4538 71.8314 64.2285 71.4941C65.0033 71.1478 65.6003 70.6647 66.0195 70.0449C66.4479 69.416 66.6621 68.6777 66.6621 67.8301V67.8027C66.6621 67.2012 66.5254 66.668 66.252 66.2031C65.9876 65.7292 65.6185 65.3418 65.1445 65.041C64.6706 64.7311 64.1146 64.5397 63.4766 64.4668V64.3574C64.1966 64.2298 64.7982 63.8652 65.2812 63.2637C65.7734 62.6621 66.0195 61.9831 66.0195 61.2266V61.1992C66.0195 60.0508 65.6048 59.1484 64.7754 58.4922C63.946 57.8359 62.8021 57.5078 61.3438 57.5078H54.4668V72ZM57.8164 69.6484V65.6973H60.3867C61.3073 65.6973 62 65.8568 62.4648 66.1758C62.9297 66.4857 63.1621 66.9688 63.1621 67.625V67.6523C63.1621 68.3177 62.9479 68.819 62.5195 69.1562C62.0911 69.4844 61.4714 69.6484 60.6602 69.6484H57.8164ZM57.8164 63.4277V59.8457H60.5371C61.2207 59.8457 61.7448 59.9961 62.1094 60.2969C62.4831 60.5977 62.6699 61.0352 62.6699 61.6094V61.6367C62.6699 62.2292 62.4648 62.6758 62.0547 62.9766C61.6536 63.2773 61.0612 63.4277 60.2773 63.4277H57.8164ZM75.5762 72.2871C76.998 72.2871 78.2331 71.9863 79.2812 71.3848C80.3294 70.7832 81.1406 69.9219 81.7148 68.8008C82.2982 67.6706 82.5898 66.3216 82.5898 64.7539V64.7266C82.5898 63.168 82.2982 61.8281 81.7148 60.707C81.1315 59.5859 80.3112 58.7246 79.2539 58.123C78.2057 57.5124 76.9753 57.207 75.5625 57.207C74.1589 57.207 72.9329 57.5124 71.8848 58.123C70.8366 58.7246 70.0208 59.5905 69.4375 60.7207C68.8542 61.8418 68.5625 63.1771 68.5625 64.7266V64.7539C68.5625 66.3125 68.8496 67.6569 69.4238 68.7871C70.0072 69.9082 70.8229 70.7741 71.8711 71.3848C72.9193 71.9863 74.1543 72.2871 75.5762 72.2871ZM75.5898 69.5391C74.8698 69.5391 74.2409 69.3522 73.7031 68.9785C73.1745 68.6048 72.7598 68.0625 72.459 67.3516C72.1673 66.6315 72.0215 65.7656 72.0215 64.7539V64.7266C72.0215 63.724 72.1673 62.8672 72.459 62.1562C72.7598 61.4453 73.1745 60.903 73.7031 60.5293C74.2409 60.1556 74.8607 59.9688 75.5625 59.9688C76.2826 59.9688 76.9069 60.1556 77.4355 60.5293C77.9733 60.903 78.388 61.4453 78.6797 62.1562C78.9714 62.8672 79.1172 63.724 79.1172 64.7266V64.7539C79.1172 65.7656 78.9714 66.6315 78.6797 67.3516C78.3971 68.0625 77.9915 68.6048 77.4629 68.9785C76.9342 69.3522 76.3099 69.5391 75.5898 69.5391ZM89.3984 65.4102L89.7539 60.1328H94.3203V72H97.7109V57.5078H86.8008L86.3086 65.1777C86.2539 66.0436 86.1536 66.7773 86.0078 67.3789C85.862 67.9714 85.6432 68.418 85.3516 68.7188C85.069 69.0104 84.6816 69.1562 84.1895 69.1562C84.0072 69.1562 83.8477 69.1471 83.7109 69.1289C83.5833 69.1016 83.4831 69.0833 83.4102 69.0742V71.9727C83.5195 72.0091 83.6836 72.0456 83.9023 72.082C84.1302 72.1185 84.3991 72.1367 84.709 72.1367C85.8483 72.1367 86.7415 71.8633 87.3887 71.3164C88.0358 70.7695 88.5098 69.9902 88.8105 68.9785C89.1113 67.9668 89.3073 66.7773 89.3984 65.4102ZM107.145 72.2871C108.083 72.2871 108.922 72.1641 109.66 71.918C110.398 71.6628 111.036 71.321 111.574 70.8926C112.112 70.4642 112.54 69.9857 112.859 69.457C113.178 68.9193 113.397 68.3724 113.516 67.8164L113.543 67.666H110.371L110.344 67.7617C110.234 68.0898 110.038 68.3952 109.756 68.6777C109.482 68.9603 109.132 69.1927 108.703 69.375C108.275 69.5482 107.778 69.6348 107.213 69.6348C106.456 69.6348 105.805 69.4707 105.258 69.1426C104.711 68.8053 104.287 68.3268 103.986 67.707C103.695 67.0781 103.549 66.3216 103.549 65.4375V64.125C103.549 63.2135 103.695 62.4388 103.986 61.8008C104.287 61.1628 104.697 60.6842 105.217 60.3652C105.745 60.0371 106.347 59.873 107.021 59.873C107.687 59.873 108.275 60.0326 108.785 60.3516C109.296 60.6615 109.697 61.1309 109.988 61.7598C110.28 62.3887 110.426 63.1771 110.426 64.125V65.4375L112.066 63.3184H101.854V65.5879H113.693V64.4941C113.693 63.0358 113.42 61.7598 112.873 60.666C112.335 59.5723 111.561 58.7246 110.549 58.123C109.546 57.5124 108.357 57.207 106.98 57.207C105.595 57.207 104.392 57.5215 103.371 58.1504C102.359 58.7793 101.571 59.6634 101.006 60.8027C100.45 61.9329 100.172 63.2591 100.172 64.7812V64.7949C100.172 66.3262 100.45 67.6523 101.006 68.7734C101.562 69.8945 102.359 70.7604 103.398 71.3711C104.447 71.9818 105.695 72.2871 107.145 72.2871ZM125.629 72H129.033V57.5078H125.629V63.2227H119.531V57.5078H116.127V72H119.531V65.8613H125.629V72Z" fill="black"/>
<path d="M122 188L117.03 185.062L116.97 190.835L122 188ZM22.9179 98.8978C19.8513 113.591 20.9806 135.512 34.1655 154.008C47.3662 172.526 72.5799 187.513 117.483 188.453L117.503 187.453C72.8239 186.518 47.9492 171.621 34.9798 153.427C21.9947 135.212 20.8723 113.593 23.8968 99.1022L22.9179 98.8978Z" fill="black"/>
</svg>
