<svg width="47" height="47" viewBox="0 0 47 47" fill="none" xmlns="http://www.w3.org/2000/svg">
<g clip-path="url(#clip0_657_7085)">
<rect width="47" height="47" rx="23.5" fill="#007BFE"/>
<path d="M33.9161 22.3231C33.9161 22.7145 34 23.0918 34 23.4832C34 25.5658 33.3984 27.5926 32.2373 29.3258C31.0901 31.059 29.4534 32.4009 27.5368 33.1976C25.6202 33.9943 23.5078 34.204 21.4653 33.7986C19.4228 33.3933 17.5482 32.4009 16.0793 30.9332C14.6244 29.4656 13.6171 27.5926 13.2114 25.5519C12.7917 23.5112 13.0016 21.4005 13.799 19.4856C14.5824 17.5707 15.9394 15.9213 17.6601 14.7752C19.3948 13.615 21.4233 13 23.4938 13C23.8855 13 24.2632 13.028 24.6549 13.07" stroke="white" stroke-width="1.5" stroke-miterlimit="10" stroke-linecap="round"/>
<path d="M35.7874 21.9983H27.1924C26.6141 21.9983 26.0492 21.7692 25.6456 21.3515C25.2421 20.9337 25 20.3813 25 19.7884V11.2319C25 10.895 25.0404 10.5716 25.1749 10.2617C25.3094 9.9518 25.5111 9.68228 25.7667 9.48016C26.0223 9.26456 26.3316 9.11633 26.6544 9.04896C26.9772 8.98158 27.3135 8.98159 27.6363 9.06244C30.165 9.58796 32.5054 10.8411 34.3347 12.6737C36.164 14.5063 37.4149 16.8509 37.9395 19.3976C38.0202 19.721 38.0202 20.0444 37.9395 20.3678C37.8588 20.6912 37.7108 20.9877 37.509 21.2302C37.2938 21.4863 37.0383 21.6884 36.7424 21.8096C36.433 21.9444 36.1102 22.0118 35.7874 21.9983Z" stroke="white" stroke-width="1.5" stroke-miterlimit="10" stroke-linecap="round"/>
</g>
<defs>
<clipPath id="clip0_657_7085">
<rect width="47" height="47" rx="23.5" fill="white"/>
</clipPath>
</defs>
</svg>
