<svg width="405" height="310" viewBox="0 0 405 310" fill="none" xmlns="http://www.w3.org/2000/svg">
<path d="M404.294 291.002L404.63 291.002C404.723 291.007 404.814 290.974 404.884 290.911C404.953 290.848 404.995 290.76 405 290.667L405 274.011C404.995 273.917 404.953 273.829 404.884 273.767C404.814 273.704 404.723 273.671 404.63 273.675L404.311 273.675L404.311 19.2105C404.311 7.04786 395.93 -3.96462e-07 385.138 -8.68183e-07L19.1717 0.00594452C8.37956 0.00594405 -1.1131e-05 7.05381 -1.16626e-05 19.2163L-2.35031e-05 290.094C-2.40347e-05 302.256 8.37955 309.304 19.1717 309.304L344.516 309.299L344.516 309.626C344.511 309.72 344.544 309.812 344.607 309.882C344.67 309.953 344.758 309.995 344.852 310L358.57 310C358.664 309.995 358.753 309.953 358.816 309.883C358.879 309.812 358.912 309.72 358.907 309.626L358.907 309.299L361.817 309.299L361.817 309.626C361.813 309.72 361.846 309.812 361.909 309.882C361.972 309.953 362.06 309.995 362.154 310L375.872 310C375.966 309.995 376.054 309.953 376.118 309.883C376.181 309.812 376.214 309.72 376.209 309.626L376.209 309.299L385.138 309.299C395.656 309.299 403.884 302.603 404.294 291.002Z" fill="#151515"/>
</svg>
