<svg width="60" height="48" viewBox="0 0 60 48" fill="none" xmlns="http://www.w3.org/2000/svg">
<path d="M48.9697 21.4092C48.9697 21.4092 49.7609 25.3124 49.9391 26.13H46.461L48.1279 21.566C48.1072 21.5981 48.471 20.6105 48.6791 20.0025L48.9697 21.4092ZM60 5.53612V42.4639C59.9995 43.7994 59.4725 45.0801 58.5348 46.0244C57.5972 46.9688 56.3256 47.4995 54.9995 47.5H5.00047C3.67441 47.4995 2.40281 46.9688 1.46515 46.0244C0.52749 45.0801 0.000496929 43.7994 0 42.4639V5.53612C0.000496929 4.20061 0.52749 2.91995 1.46515 1.9756C2.40281 1.03125 3.67441 0.5005 5.00047 0.5H54.9995C56.3256 0.5005 57.5972 1.03125 58.5348 1.9756C59.4725 2.91995 59.9995 4.20061 60 5.53612ZM15.8864 31.8894L22.4693 15.6084H18.0426L13.9496 26.7286L13.5015 24.474L12.0427 16.983C11.8028 15.9445 11.064 15.6499 10.1472 15.6084H3.40864L3.33552 15.9331C4.87874 16.3144 6.35904 16.9187 7.73038 17.727L11.4596 31.8894H15.8864ZM25.7204 31.9101L28.3454 15.6084H24.1586L21.545 31.9101H25.7204ZM40.2925 26.5813C40.3131 24.7251 39.1882 23.3089 36.7826 22.1438C35.3145 21.3979 34.4183 20.8956 34.4183 20.129C34.4389 19.436 35.1795 18.7222 36.8238 18.7222C37.8948 18.6917 38.959 18.9034 39.9381 19.3415L40.3131 19.519L40.8868 15.9936C39.6899 15.5321 38.4186 15.2971 37.137 15.3006C33.0008 15.3006 30.0947 17.525 30.0741 20.6917C30.0422 23.0313 32.1571 24.3323 33.7414 25.1179C35.3558 25.9147 35.9089 26.4397 35.9089 27.1421C35.8883 28.2336 34.5964 28.7359 33.3983 28.7359C31.7315 28.7359 30.8353 28.4734 29.4703 27.8654L28.9191 27.6029L28.336 31.2643C29.3147 31.7156 31.1278 32.1141 33.0027 32.1348C37.3976 32.1443 40.2625 29.952 40.2944 26.5757L40.2925 26.5813ZM54.9995 31.9101L51.6246 15.6084H48.3847C47.3854 15.6084 46.6242 15.9029 46.1967 16.9623L39.9775 31.912H44.3724C44.3724 31.912 45.0905 29.8972 45.248 29.4685H50.6234C50.749 30.0464 51.124 31.912 51.124 31.912L54.9995 31.9101Z" fill="white"/>
</svg>
