<svg width="50" height="50" viewBox="0 0 50 50" fill="none" xmlns="http://www.w3.org/2000/svg">
<g clip-path="url(#clip0_803_8093)">
<path d="M1.06641 24.7008C1.06523 28.9017 2.17148 33.0037 4.275 36.6192L0.865234 48.9723L13.6059 45.6576C17.1297 47.5611 21.078 48.5585 25.0902 48.5587H25.1008C38.3459 48.5587 49.1277 37.8643 49.1334 24.7196C49.1359 18.35 46.6383 12.3605 42.1004 7.85427C37.5633 3.34845 31.5291 0.8657 25.0998 0.862793C11.8531 0.862793 1.07207 11.5566 1.0666 24.7008" fill="url(#paint0_linear_803_8093)"/>
<path d="M0.208984 24.693C0.207617 29.0452 1.35352 33.2938 3.53203 37.0388L0 49.8347L13.1975 46.4012C16.8338 48.3684 20.9279 49.4056 25.0939 49.4072H25.1047C38.825 49.4072 49.9941 38.3281 50 24.7128C50.0023 18.1143 47.4148 11.9095 42.7148 7.24186C38.0143 2.57481 31.7643 0.00271318 25.1047 0C11.382 0 0.214648 11.0775 0.20918 24.693H0.208984ZM8.06836 36.3938L7.57559 35.6176C5.5041 32.3494 4.41074 28.5727 4.4123 24.6946C4.4168 13.3777 13.6988 4.17054 25.1125 4.17054C30.6398 4.17287 35.8344 6.31085 39.7414 10.1899C43.6482 14.0694 45.798 19.2264 45.7967 24.7112C45.7916 36.0281 36.5094 45.2364 25.1047 45.2364H25.0965C21.383 45.2345 17.741 44.245 14.5648 42.375L13.809 41.9302L5.97734 43.9676L8.06836 36.3936V36.3938Z" fill="url(#paint1_linear_803_8093)"/>
<path d="M18.8828 14.3697C18.4168 13.3419 17.9264 13.3212 17.4832 13.3032C17.1203 13.2877 16.7055 13.2888 16.291 13.2888C15.8762 13.2888 15.2021 13.4437 14.6324 14.0609C14.0621 14.6788 12.4551 16.1718 12.4551 19.2084C12.4551 22.2452 14.6842 25.1799 14.9949 25.5921C15.3061 26.0036 19.2982 32.4346 25.6209 34.9086C30.8756 36.9646 31.9449 36.5557 33.0854 36.4526C34.226 36.3499 36.7658 34.96 37.284 33.5187C37.8025 32.0776 37.8025 30.8423 37.6471 30.5842C37.4916 30.327 37.0768 30.1726 36.4547 29.864C35.8324 29.5553 32.7742 28.0621 32.2041 27.8561C31.6338 27.6503 31.2191 27.5476 30.8043 28.1656C30.3895 28.7826 29.1982 30.1726 28.8352 30.5842C28.4725 30.9968 28.1094 31.0481 27.4875 30.7394C26.865 30.4297 24.8617 29.7788 22.485 27.6762C20.6357 26.0402 19.3873 24.0198 19.0244 23.4018C18.6615 22.7848 18.9855 22.4503 19.2975 22.1427C19.577 21.8662 19.9197 21.422 20.2311 21.0617C20.5412 20.7012 20.6447 20.4441 20.8521 20.0324C21.0598 19.6204 20.9559 19.26 20.8006 18.9512C20.6447 18.6425 19.4359 15.5902 18.8828 14.3698" fill="white"/>
</g>
<defs>
<linearGradient id="paint0_linear_803_8093" x1="24.9993" y1="48.9723" x2="24.9993" y2="0.862793" gradientUnits="userSpaceOnUse">
<stop stop-color="#1FAF38"/>
<stop offset="1" stop-color="#60D669"/>
</linearGradient>
<linearGradient id="paint1_linear_803_8093" x1="25" y1="49.8347" x2="25" y2="0" gradientUnits="userSpaceOnUse">
<stop stop-color="#F9F9F9"/>
<stop offset="1" stop-color="white"/>
</linearGradient>
<clipPath id="clip0_803_8093">
<rect width="50" height="50" fill="white"/>
</clipPath>
</defs>
</svg>
